<svg xmlns="http://www.w3.org/2000/svg" width="76" height="32" fill="none">
    <path fill="#fff"
        d="M14.25 1.1c.17-.33.42-.6.73-.8a1.91 1.91 0 0 1 2.05 0c.3.2.56.47.72.8L33.3 32H1.98c-.34 0-.68-.1-.97-.27-.3-.17-.55-.42-.73-.73a2.13 2.13 0 0 1-.05-2.02L14.25 1.1Zm47.5 29.8c-.17.33-.42.6-.73.8a1.92 1.92 0 0 1-2.05 0c-.3-.2-.56-.47-.72-.8L42.7 0h31.32c.34 0 .68.1.97.27.3.17.55.42.73.73a2.13 2.13 0 0 1 .05 2.02L61.75 30.9Z" />
    <path fill="#fff"
        d="m47.49 22.06 3.11.34v6.5H31.25l-.42-3.1a5.62 5.62 0 0 1 2.34-1.24V7.46C32 7.1 31.22 6.68 30.83 6.2l.42-3.1h9.9l.42 3.1a5.7 5.7 0 0 1-2.31 1.26v17.37h6.66c.37-1.32.89-2.24 1.57-2.77ZM73.34 0H16v3.1h57.34V0ZM59.5 28.9H2.16V32H59.5v-3.1Z" />
</svg>