<svg xmlns="http://www.w3.org/2000/svg" width="28" height="32" fill="none">
    <g clip-path="url(#a)">
        <path fill="#BEBDC9"
            d="M27.12 4.12 23.88.88A3 3 0 0 0 21.76 0H11a3 3 0 0 0-3 3v3H3a3 3 0 0 0-3 3v20a3 3 0 0 0 3 3h14a3 3 0 0 0 3-3v-3h5a3 3 0 0 0 3-3V6.24a3 3 0 0 0-.88-2.12ZM16.62 29H3.38a.38.38 0 0 1-.37-.38V9.38A.38.38 0 0 1 3.38 9H8v14a3 3 0 0 0 3 3h6v2.63a.38.38 0 0 1-.38.37Zm8-6H11.38a.38.38 0 0 1-.37-.38V3.38a.38.38 0 0 1 .38-.37H18v5.5c0 .83.67 1.5 1.5 1.5H25v12.63a.38.38 0 0 1-.38.37ZM25 7h-4V3h.6c.1 0 .2.04.27.11l3.02 3.02a.38.38 0 0 1 .11.27V7Z" />
    </g>
    <defs>
        <clipPath id="a">
            <path fill="#fff" d="M0 0h28v32H0z" />
        </clipPath>
    </defs>
</svg>