<svg xmlns="http://www.w3.org/2000/svg" width="32" height="32" fill="none"><g clip-path="url(#a)"><path fill="#ECA225" d="M16 .5a15.5 15.5 0 1 0 8.46 28.49 1.5 1.5 0 0 0 .35-2.21l-.64-.78a1.5 1.5 0 0 0-1.96-.32A11.51 11.51 0 0 1 4.5 16C4.5 9.66 9.66 4.5 16 4.5c6.26 0 11.5 3.6 11.5 10 0 2.42-1.32 4.98-3.64 5.23-1.08-.03-1.05-.8-.84-1.88l1.47-7.57A1.5 1.5 0 0 0 23 8.5h-2.8a.85.85 0 0 0-.85.75c-.92-1.11-2.53-1.36-3.75-1.36C10.95 7.9 7 11.8 7 17.36c0 4.08 2.3 6.62 6 6.62 1.69 0 3.59-.98 4.69-2.4.6 2.13 2.54 2.13 4.42 2.13 6.8 0 9.39-4.47 9.39-9.21 0-8.52-6.87-14-15.5-14Zm-1.36 19.03c-1.39 0-2.25-.98-2.25-2.55 0-2.81 1.92-4.55 3.66-4.55 1.4 0 2.23.96 2.23 2.55 0 2.82-2.12 4.55-3.64 4.55Z"/></g><defs><clipPath id="a"><path fill="#fff" d="M0 0h32v32H0z"/></clipPath></defs></svg>