<svg xmlns="http://www.w3.org/2000/svg" width="32" height="32" fill="none"><g clip-path="url(#a)"><mask id="b" width="32" height="32" x="0" y="0" maskUnits="userSpaceOnUse" style="mask-type:luminance"><path fill="#fff" d="M0 0h32v32H0V0Z"/></mask><g fill="#ECA225" mask="url(#b)"><path d="M24 13h-2a3 3 0 0 0-3-3V8a5 5 0 0 1 5 5Z"/><path d="M28 13h-2a7 7 0 0 0-7-7V4a9.01 9.01 0 0 1 9 9Zm-7.67 8.48 2.24-2.24a2.17 2.17 0 0 1 2.34-.48l2.73 1.1a2.17 2.17 0 0 1 1.36 2v4.97A2.17 2.17 0 0 1 26.72 29C7.59 27.8 3.73 11.6 3.02 5.4A2.16 2.16 0 0 1 5.17 3h4.87a2.17 2.17 0 0 1 2.01 1.36l1.1 2.73a2.17 2.17 0 0 1-.49 2.34l-2.23 2.24s1.24 8.73 9.9 9.81Z"/></g></g><defs><clipPath id="a"><path fill="#fff" d="M0 0h32v32H0z"/></clipPath></defs></svg>