<svg xmlns="http://www.w3.org/2000/svg" width="40" height="32" viewBox="0 0 40 32"  fill="none" >
    <g clip-path="url(#a)">
        <g fill="#fff" clip-path="url(#b)">
            <path
                d="M-3.75 1.1c.17-.33.42-.6.73-.8A1.91 1.91 0 0 1-.97.3c.3.2.56.47.72.8L15.3 32h-31.32c-.34 0-.68-.1-.97-.27-.3-.17-.55-.42-.73-.73a2.13 2.13 0 0 1-.05-2.02L-3.75 1.1Zm47.5 29.8c-.17.33-.42.6-.73.8a1.92 1.92 0 0 1-2.05 0c-.3-.2-.56-.47-.72-.8L24.7 0h31.32c.34 0 .68.1.97.27.3.17.55.42.73.73a2.13 2.13 0 0 1 .05 2.02L43.75 30.9Z" />
            <path
                d="m29.49 22.06 3.11.34v6.5H13.25l-.42-3.1a5.62 5.62 0 0 1 2.34-1.24V7.46C14 7.1 13.22 6.68 12.83 6.2l.42-3.1h9.9l.42 3.1a5.7 5.7 0 0 1-2.31 1.26v17.37h6.66c.37-1.32.89-2.24 1.57-2.77ZM55.34 0H-2v3.1h57.34V0ZM41.5 28.9h-57.34V32H41.5v-3.1Z" />
        </g>
    </g>
    <defs>
        <clipPath id="a">
            <rect width="40" height="32" fill="#fff" rx="4"/>
        </clipPath>
        <clipPath id="b">
            <path fill="#fff" d="M-18 0h76v32h-76z" />
        </clipPath>
    </defs>
</svg>